<svg xmlns="http://www.w3.org/2000/svg" width="2359" height="2500" viewBox="0 0 50.041 53.04">


    <path
        d="M19.681 34.201h5.039V.001h-5.039v34.2zM16.08 0h2.64c-.004 15.983-.413 19.865-2.879 24.601C13.403 29.264 6.56 34.168.72 34.681v-5.16c4.408-.665 8.392-3.424 11.881-8.64C16.061 15.677 16.161 3.314 16.08 0zM28.441 0H25.8c-.035 15.983.373 19.865 2.88 24.601 2.396 4.663 9.243 9.567 15.12 10.08v-5.16c-4.447-.665-8.433-3.424-11.88-8.64C28.421 15.677 28.319 3.314 28.441 0zM40.921 53.04h2.4V37.561h-2.4V53.04zM10.08 37.561v2.28h3.241V53.04h2.399V39.841h3.121v-2.28H10.08zM25.562 49.201l1.079 3.839h2.399l-3.96-13.92c-.378-1.47-1.24-1.583-1.8-1.56-.64-.023-1.503.09-1.919 1.56l-3.96 13.92H19.8l1.081-3.839h4.681zM32.642 40.561V53.04H30.24V39.841c.049-1.592.687-2.304 2.281-2.28h2.519c1.925-.023 4.211 1.401 4.2 4.56.011 3.067-1.713 3.854-2.639 4.32-.499.396-.388.696-.12 1.2l3.599 5.399h-2.759l-3.48-5.399c-.701-1.028-.401-2.154.359-2.521.487-.29 2.726-.908 2.761-2.879-.035-1.929-1.197-2.38-2.04-2.4H33.24c-.4.02-.625.209-.598.72zM8.16 49.201l1.08 3.839h2.401L7.68 39.12c-.353-1.47-1.215-1.583-1.799-1.56-.616-.023-1.479.09-1.921 1.56L0 53.04h2.401l1.08-3.839H8.16z" />
    <path fill="#fff" d="M21.601 46.921l1.679-5.881 1.68 5.881h-3.359zM4.2 46.921l1.681-5.881 1.68 5.881H4.2z" />
</svg>